# xmcd
# Copyright (C) 1995-1998 Ti Kan
#
# Track frame offsets:
#       182
#       13550
#       30505
#       44630
#       69537
#       75585
#       92847
#       106167
#       117672
#       136080
#       151647
#
# Disc length: 2115 seconds
#
# Revision: 0
# Processed by: cddbd v1.5.2PL0 Copyright (c) Steve Scherf et al.
# Submitted via: CD-Import v1.0
#
DISCID=8108410b
DTITLE=Neil Young - After The Goldrush
DYEAR=1970
DGENRE=
TTITLE0=Tell Me Why
TTITLE1=After The Goldrush
TTITLE2=Only Love Can Break Your Heart
TTITLE3=Southern Man
TTITLE4=Till The Morning Comes
TTITLE5=Oh, Lonesome Me
TTITLE6=Don't Let It Bring You Down
TTITLE7=Birds
TTITLE8=When You Dance You Can Really Love
TTITLE9=I Believe In You
TTITLE10=Cripple Creek Ferry
EXTD=
EXTT0=
EXTT1=
EXTT2=
EXTT3=
EXTT4=
EXTT5=
EXTT6=
EXTT7=
EXTT8=
EXTT9=
EXTT10=
PLAYORDER=
